<svg width="115" height="36" viewBox="0 0 115 36" fill="none" xmlns="http://www.w3.org/2000/svg">
<path d="M0 0H96.76C106.701 0 114.76 8.05888 114.76 18C114.76 27.9411 106.701 36 96.76 36H0V0Z" fill="#003569"/>
<path d="M30.32 23L35.504 17.544C35.7707 17.256 36 16.9787 36.192 16.712C36.384 16.4453 36.528 16.1787 36.624 15.912C36.72 15.6453 36.768 15.3627 36.768 15.064C36.768 14.8507 36.7253 14.6427 36.64 14.44C36.5653 14.2267 36.4427 14.0347 36.272 13.864C36.112 13.6933 35.9147 13.56 35.68 13.464C35.4453 13.3573 35.1733 13.304 34.864 13.304C34.4373 13.304 34.0693 13.4053 33.76 13.608C33.4507 13.8 33.2107 14.0827 33.04 14.456C32.88 14.8293 32.8 15.2613 32.8 15.752H30.928C30.928 14.952 31.0773 14.2427 31.376 13.624C31.6853 12.9947 32.1333 12.504 32.72 12.152C33.3173 11.7893 34.0427 11.608 34.896 11.608C35.5467 11.608 36.112 11.7147 36.592 11.928C37.072 12.1307 37.4667 12.3973 37.776 12.728C38.096 13.0587 38.3307 13.4213 38.48 13.816C38.64 14.2107 38.72 14.5947 38.72 14.968C38.72 15.5547 38.576 16.12 38.288 16.664C38.0107 17.208 37.6427 17.6933 37.184 18.12L34 21.24H38.864V23H30.32ZM42.2322 17.4C42.2322 17.9973 42.2909 18.5467 42.4083 19.048C42.5256 19.5493 42.6909 19.9813 42.9043 20.344C43.1283 20.7067 43.3949 20.9893 43.7043 21.192C44.0136 21.384 44.3549 21.48 44.7283 21.48C45.1229 21.48 45.4696 21.384 45.7682 21.192C46.0776 20.9893 46.3389 20.7067 46.5523 20.344C46.7763 19.9813 46.9469 19.5493 47.0643 19.048C47.1816 18.5467 47.2403 17.9973 47.2403 17.4C47.2403 16.8027 47.1816 16.2533 47.0643 15.752C46.9469 15.2507 46.7763 14.8187 46.5523 14.456C46.3389 14.0933 46.0776 13.816 45.7682 13.624C45.4696 13.4213 45.1229 13.32 44.7283 13.32C44.3549 13.32 44.0136 13.4213 43.7043 13.624C43.3949 13.816 43.1283 14.0933 42.9043 14.456C42.6909 14.8187 42.5256 15.2507 42.4083 15.752C42.2909 16.2533 42.2322 16.8027 42.2322 17.4ZM40.3762 17.4C40.3762 16.2373 40.5576 15.224 40.9202 14.36C41.2936 13.496 41.8056 12.824 42.4562 12.344C43.1176 11.864 43.8749 11.624 44.7283 11.624C45.6029 11.624 46.3656 11.864 47.0163 12.344C47.6776 12.824 48.1896 13.496 48.5522 14.36C48.9149 15.224 49.0963 16.2373 49.0963 17.4C49.0963 18.5627 48.9149 19.576 48.5522 20.44C48.1896 21.304 47.6776 21.976 47.0163 22.456C46.3656 22.936 45.6029 23.176 44.7283 23.176C43.8749 23.176 43.1176 22.936 42.4562 22.456C41.8056 21.976 41.2936 21.304 40.9202 20.44C40.5576 19.576 40.3762 18.5627 40.3762 17.4ZM57.2851 20.12L57.6371 18.52H62.8371L63.2051 20.12H57.2851ZM60.2131 14.968L58.4531 19.08L58.4211 19.496L56.8691 23H54.7411L60.2131 11.176L65.6851 23H63.5571L62.0371 19.592L61.9891 19.128L60.2131 14.968ZM67.068 11.8H68.956V23H67.068V11.8ZM68.188 13.464V11.8H70.444C71.2547 11.8 71.9587 11.944 72.556 12.232C73.164 12.5093 73.6333 12.9093 73.964 13.432C74.2947 13.944 74.46 14.5573 74.46 15.272C74.46 15.9867 74.2947 16.6053 73.964 17.128C73.6333 17.6507 73.164 18.056 72.556 18.344C71.9587 18.6213 71.2547 18.76 70.444 18.76H68.188V17.096H70.444C71.0947 17.096 71.6173 16.9413 72.012 16.632C72.4067 16.3227 72.604 15.8693 72.604 15.272C72.604 14.6747 72.4067 14.2267 72.012 13.928C71.6173 13.6187 71.0947 13.464 70.444 13.464H68.188ZM78.702 17.656H80.75L84.542 23H82.27L78.702 17.656ZM76.398 11.8H78.286V23H76.398V11.8ZM77.518 13.432V11.8H79.854C80.6647 11.8 81.3687 11.944 81.966 12.232C82.574 12.52 83.0433 12.9253 83.374 13.448C83.7047 13.96 83.87 14.568 83.87 15.272C83.87 15.976 83.7047 16.5893 83.374 17.112C83.0433 17.6347 82.574 18.04 81.966 18.328C81.3687 18.616 80.6647 18.76 79.854 18.76H77.518V17.208H79.774C80.2007 17.208 80.574 17.1333 80.894 16.984C81.2247 16.8347 81.4807 16.6213 81.662 16.344C81.8433 16.056 81.934 15.7147 81.934 15.32C81.934 14.9147 81.8433 14.5733 81.662 14.296C81.4807 14.0187 81.2247 13.8053 80.894 13.656C80.574 13.5067 80.2007 13.432 79.774 13.432H77.518Z" fill="white"/>
</svg>
